# xmcd
#
# Track frame offsets:
#   150
#   14110
#   31315
#   43022
#   52997
#   67305
#   81280
#   94930
#   109595
#   121347
#   133872
#   147402
#
# Disc length: 2224 seconds
#
# Revision: 0
# Processed by: cddbd v1.5.1PL2 Copyright (c) Steve Scherf et al.
# Submitted via: uFREEDB 1.6.0
#
DISCID=b108ae0c
DTITLE=Inger Lauritzen - Klit og Sand
DYEAR=1900
DGENRE=Alternative
TTITLE0=Hybenrosen
TTITLE1=Den gamles hilsen
TTITLE2=Byen og vinden
TTITLE3=Sådan en dejlig morgen
TTITLE4=Bryllup
TTITLE5=Markvejen
TTITLE6=Et stemmende hav
TTITLE7=Marienøglen
TTITLE8=Efterårsstemning
TTITLE9=Vendelboen
TTITLE10=Aftenstemning
TTITLE11=Storm og mærsejlskuling
EXTD=
EXTT0=
EXTT1=
EXTT2=
EXTT3=
EXTT4=
EXTT5=
EXTT6=
EXTT7=
EXTT8=
EXTT9=
EXTT10=
EXTT11=
PLAYORDER=
